<?xml version="1.0" encoding="utf-8"?>
<!-- Generator: Adobe Illustrator 28.3.0, SVG Export Plug-In . SVG Version: 6.00 Build 0)  -->
<svg version="1.1" xmlns="http://www.w3.org/2000/svg" xmlns:xlink="http://www.w3.org/1999/xlink" x="0px" y="0px"
	 viewBox="0 0 600 600" style="enable-background:new 0 0 600 600;" xml:space="preserve">
<style type="text/css">
	.st0{fill:#231F20;}
	.st1{fill:#FFFFFF;}
</style>
<g id="Background">
	<path class="st0" d="M527.8,598.5H70.7c-39,0-70.7-31.7-70.7-70.7V70.7C0,31.7,31.7,0,70.7,0h457.1c39,0,70.7,31.7,70.7,70.7v457.1
		C598.5,566.8,566.8,598.5,527.8,598.5z"/>
</g>
<g id="Layer_1">
	<path class="st1" d="M158.9,110.3C216,153.1,277.5,240,300,286.7c22.5-46.6,84-133.5,141.1-176.4C482.3,79.3,549,55.4,549,131.6
		c0,15.2-8.7,127.8-13.8,146c-17.8,63.5-82.6,79.7-140.2,69.9c100.7,17.1,126.3,73.9,71,130.7C360.9,586,315,451.2,303.2,416.6
		c-2.2-6.3-3.2-9.3-3.2-6.8c0-2.5-1,0.4-3.2,6.8C285,451.2,239.1,586,134,478.2c-55.3-56.8-29.7-113.6,71-130.7
		c-57.6,9.8-122.4-6.4-140.2-69.9C59.7,259.3,51,146.8,51,131.6C51,55.4,117.8,79.3,158.9,110.3L158.9,110.3z"/>
</g>
</svg>
