<?xml version="1.0" standalone="no"?>
<!DOCTYPE svg PUBLIC "-//W3C//DTD SVG 20010904//EN"
 "http://www.w3.org/TR/2001/REC-SVG-20010904/DTD/svg10.dtd">
<svg version="1.0" xmlns="http://www.w3.org/2000/svg"
 width="128.000000pt" height="128.000000pt" viewBox="0 0 128.000000 128.000000"
 preserveAspectRatio="xMidYMid meet">
<metadata>
Created by potrace 1.14, written by Peter Selinger 2001-2017
</metadata>
<g transform="translate(0.000000,128.000000) scale(0.100000,-0.100000)"
fill="#000000" stroke="none">
<path d="M449 1271 c-43 -9 -64 -24 -110 -76 -43 -49 -66 -104 -89 -213 -17
-79 -16 -111 5 -198 4 -18 -2 -25 -35 -38 -41 -16 -50 -35 -27 -55 8 -6 19
-28 25 -50 14 -44 48 -91 66 -91 8 0 15 -19 19 -53 6 -55 69 -211 130 -318 20
-35 58 -87 85 -115 50 -51 50 -51 125 -57 102 -7 138 6 213 76 70 65 134 176
158 273 12 49 32 196 29 214 -1 3 -4 34 -8 70 -5 51 -4 62 5 53 7 -6 15 -33
18 -59 l5 -47 19 38 c42 81 32 194 -21 245 -16 15 -42 67 -65 130 -51 136
-103 201 -196 243 -59 27 -76 30 -190 33 -69 2 -141 0 -161 -5z m242 -171 c96
-107 104 -122 86 -167 -13 -33 -20 -39 -78 -55 -35 -10 -81 -18 -102 -18 -31
0 -39 -4 -47 -24 -13 -35 -41 -47 -92 -40 -29 4 -61 1 -91 -10 -84 -28 -94
-24 -108 42 -20 96 12 217 74 283 17 19 42 31 83 39 32 6 64 13 69 15 6 2 40
4 76 4 l67 1 63 -70z m166 -352 c-3 -8 -6 -5 -6 6 -1 11 2 17 5 13 3 -3 4 -12
1 -19z m-307 -37 c5 -11 10 -39 10 -63 0 -24 7 -53 15 -64 20 -27 19 -46 -6
-73 -15 -15 -29 -21 -45 -18 -25 4 -32 -11 -13 -30 8 -8 2 -20 -20 -44 l-32
-34 7 38 c3 20 3 37 0 37 -11 0 -36 -68 -36 -98 0 -33 31 -67 46 -52 17 17 52
-17 56 -53 3 -29 6 -32 38 -34 30 -2 32 -1 13 7 -29 12 -34 71 -5 64 9 -3 46
2 81 10 69 16 81 14 81 -13 0 -44 -75 -81 -172 -85 -31 -1 -35 -8 -13 -26 10
-8 36 -10 82 -6 94 8 123 18 146 48 18 24 18 30 7 58 -18 43 0 83 33 75 21 -6
23 -2 25 32 2 20 6 40 9 43 3 3 3 -21 0 -53 -3 -31 -1 -72 4 -89 5 -21 5 -36
-1 -42 -6 -6 -10 -22 -10 -37 0 -54 -114 -111 -220 -111 -8 0 -25 -5 -38 -11
-20 -9 -26 -6 -53 24 -31 36 -68 104 -69 128 0 7 -22 36 -50 64 -51 51 -62 77
-35 77 21 0 19 9 -7 30 -36 29 -16 69 52 102 62 30 67 41 69 134 1 75 27 109
51 65z m255 -15 c0 -16 -57 -44 -100 -51 -28 -4 -46 -2 -59 8 -19 14 -18 16
25 35 45 21 134 26 134 8z m-13 -56 c-26 -24 -41 -30 -75 -29 l-42 0 60 21
c33 11 64 24 70 29 5 5 11 9 15 9 3 0 -10 -14 -28 -30z m-322 -9 c0 -37 -53
-71 -111 -71 -29 0 -30 1 -15 23 18 25 82 64 109 66 10 1 17 -6 17 -18z m-130
-10 c0 -6 -4 -13 -10 -16 -5 -3 -10 1 -10 9 0 9 5 16 10 16 6 0 10 -4 10 -9z
m425 -37 c22 -3 48 -11 58 -19 16 -11 16 -16 5 -34 -7 -11 -18 -22 -26 -23
-10 -2 -7 -9 8 -26 l22 -23 -69 3 c-67 3 -68 3 -73 33 -5 27 -9 30 -37 27 -20
-2 -32 2 -36 13 -5 10 0 15 14 15 17 0 20 4 15 24 -6 26 -8 26 119 10z m-291
-19 c-4 -8 -10 -15 -14 -15 -4 0 -24 -11 -45 -25 -33 -23 -40 -24 -66 -13 -31
14 -21 28 21 28 14 0 41 8 60 19 44 24 51 24 44 6z m231 -195 c-3 -5 -13 -10
-21 -10 -8 0 -12 5 -9 10 3 6 13 10 21 10 8 0 12 -4 9 -10z m-47 -15 c-2 -1
-16 -5 -33 -9 l-30 -6 25 14 c14 8 28 12 33 9 5 -3 7 -6 5 -8z"/>
<path d="M720 520 c8 -5 20 -10 25 -10 6 0 3 5 -5 10 -8 5 -19 10 -25 10 -5 0
-3 -5 5 -10z"/>
</g>
</svg>
